<svg xmlns="http://www.w3.org/2000/svg" width="1200" height="700" viewBox="0 0 1200 700">
  <rect width="1200" height="700" fill="#f8fafc"/>
  <rect x="50" y="50" width="1100" height="600" rx="28" fill="#ffffff" stroke="#cbd5e1" stroke-width="2"/>
  <text x="90" y="120" font-family="Arial, sans-serif" font-size="42" font-weight="700" fill="#0f172a">BART Summarization Pipeline</text>
  <text x="90" y="160" font-family="Arial, sans-serif" font-size="22" fill="#475569">Three-stage encoder-decoder workflow built around XSum and facebook/bart-base</text>

  <rect x="95" y="230" width="280" height="160" rx="20" fill="#dbeafe"/>
  <text x="130" y="280" font-family="Arial, sans-serif" font-size="30" font-weight="700" fill="#0f172a">Stage 1</text>
  <text x="130" y="320" font-family="Arial, sans-serif" font-size="24" fill="#334155">Load XSum subset</text>
  <text x="130" y="352" font-family="Arial, sans-serif" font-size="24" fill="#334155">Initialize bart-base</text>

  <rect x="460" y="230" width="280" height="160" rx="20" fill="#dcfce7"/>
  <text x="495" y="280" font-family="Arial, sans-serif" font-size="30" font-weight="700" fill="#0f172a">Stage 2</text>
  <text x="495" y="320" font-family="Arial, sans-serif" font-size="24" fill="#334155">Masked denoising SSL</text>
  <text x="495" y="352" font-family="Arial, sans-serif" font-size="24" fill="#334155">Save adapted checkpoint</text>

  <rect x="825" y="230" width="280" height="160" rx="20" fill="#fae8ff"/>
  <text x="860" y="280" font-family="Arial, sans-serif" font-size="30" font-weight="700" fill="#0f172a">Stage 3</text>
  <text x="860" y="320" font-family="Arial, sans-serif" font-size="24" fill="#334155">Fine-tune Model A + B</text>
  <text x="860" y="352" font-family="Arial, sans-serif" font-size="24" fill="#334155">Compare ROUGE + outputs</text>

  <line x1="375" y1="310" x2="460" y2="310" stroke="#64748b" stroke-width="5"/>
  <line x1="740" y1="310" x2="825" y2="310" stroke="#64748b" stroke-width="5"/>

  <rect x="95" y="450" width="1010" height="130" rx="20" fill="#0f172a"/>
  <text x="130" y="500" font-family="Arial, sans-serif" font-size="28" font-weight="700" fill="#ffffff">Evaluation artifact carried into the report</text>
  <text x="130" y="540" font-family="Arial, sans-serif" font-size="24" fill="#cbd5e1">Model A = Stage 2 SSL checkpoint, Model B = original BART checkpoint</text>
  <text x="130" y="572" font-family="Arial, sans-serif" font-size="24" fill="#cbd5e1">Same labeled data, same training settings, quantitative ROUGE plus qualitative summary examples</text>
</svg>
